Mr. and Mrs. Smith 2005 BluRay 1080p DTS x264-LoNeWoLf

Encoded by Tequila-Bob a.k.a. bobnjeff a.k.a.LoNeWoLf

Source - NTSC BluRay Disc.

Movie has been tested and is DXVA Compliant



More at IMDbPro » Mr. & Mrs. Smith (2005) 
  120 min  -  Action , Adventure, Comedy   -  10 June 2005 (USA) 
  6.4/10 X  Users: 6.4/10 (104,385 votes) 760 reviews | Critics: 247 reviews 
  A bored married couple is surprised to learn that they are both assassins hired by competing agencies to kill each other. 
Director: Doug Liman
  Writer: Simon Kinberg
  Stars:Brad Pitt, Angelina Jolie, Adam Brody
 
http://www.imdb.com/title/tt0356910/

Genres:Action | Adventure | Comedy | Romance | Thriller

Rated PG-13 for sequences of violence, intense action, sexual content and brief strong language. 


Storyline
John and Jane Smith are a normal married couple, living a normal life in a normal suburb, working normal jobs...well, if you can call secretly being assassins "normal". But neither Jane nor John knows about their spouse's secret, until they are surprised to find each other as targets! But on their quest to kill each other, they learn a lot more about each other than they ever did in five (or six) years of marriage

Cast
Cast overview, first billed only: 
  Brad Pitt  ...  John Smith  
  Angelina Jolie  ...  Jane Smith  
  Vince Vaughn  ...  Eddie  
  Adam Brody  ...  Benjamin Danz  
  Kerry Washington  ...  Jasmine  
  Keith David  ...  Father  
  Chris Weitz  ...  Martin Coleman  
  Rachael Huntley  ...  Suzy Coleman  
  Michelle Monaghan  ...  Gwen  
  Stephanie March  ...  Julie - Associate #1  
  Jennifer Morrison  ...  Jade - Associate #2  
  Theresa Barrera  ...  Janet - Associate #3  
  Perrey Reeves  ...  Jessie - Associate #4  
  Melanie Tolbert  ...  Jamie - Associate #5  
  Jerry T. Adams  ...  Guard - Bull  


[img]http://torrent-stats.info/8995/963740aa.png[/img]

See the full size 1920x816 PNG files at the link below
 
http://s1015.photobucket.com/albums/af279/tequila-bob/Mr%20and%20Mrs%20Smith%202005/







Format : Matroska 
File size : 10.0 GiB 
Duration : 1h 59mn 
Overall bit rate : 12.0 Mbps 
Encoded date : UTC 2010-12-25 05:18:54 
Writing application : mkvmerge v4.4.0 ('Die Wiederkehr') built on Oct 31 2010 21:52:48 
Writing library : libebml v1.0.0 + libmatroska v1.0.0 

Video 
ID : 1 
Format : AVC 
Format/Info : Advanced Video Codec 
Format profile : High@L4.1 
Format settings, CABAC : Yes 
Format settings, ReFrames : 4 frames 
Muxing mode : Container profile=Unknown@4.1 
Codec ID : V_MPEG4/ISO/AVC 
Duration : 1h 59mn 
Bit rate : 10.4 Mbps 
Width : 1 920 pixels 
Height : 816 pixels 
Display aspect ratio : 2.35:1 
Frame rate : 23.976 fps 
Color space : YUV 
Chroma subsampling : 4:2:0 
Bit depth : 8 bits 
Scan type : Progressive 
Bits/(Pixel*Frame) : 0.277 
Stream size : 8.57 GiB (85%) 
Writing library : x264 core 98 r1649 c54c47d 
Encoding settings : cabac=1 / ref=5 / deblock=1:-3:-3 / analyse=0x3:0x113 / me=umh / subme=9 / psy=1 / psy_rd=1.00:0.15 / mixed_ref=1 / me_range=32 / chroma_me=1 / trellis=2 / 8x8dct=1 / cqm=0 / deadzone=21,11 / fast_pskip=0 / chroma_qp_offset=-3 / threads=6 / sliced_threads=0 / nr=0 / decimate=1 / interlaced=0 / constrained_intra=0 / bframes=3 / b_pyramid=1 / b_adapt=2 / b_bias=0 / direct=1 / weightb=1 / weightp=2 / keyint=250 / keyint_min=25 / scenecut=40 / intra_refresh=0 / rc_lookahead=60 / rc=2pass / mbtree=1 / bitrate=10413 / ratetol=1.0 / qcomp=0.60 / qpmin=10 / qpmax=51 / qpstep=4 / cplxblur=20.0 / qblur=0.5 / vbv_maxrate=50000 / vbv_bufsize=50000 / ip_ratio=1.40 / aq=1:1.50 / nal_hrd=none 
Language : English 

Audio 
ID : 2 
Format : DTS 
Format/Info : Digital Theater Systems 
Codec ID : A_DTS 
Duration : 1h 59mn 
Bit rate mode : Constant 
Bit rate : 1 510 Kbps 
Channel(s) : 6 channels 
Channel positions : Front: L C R, Side: L R, LFE 
Sampling rate : 48.0 KHz 
Bit depth : 24 bits 
Video delay : 10ms 
Stream size : 1.27 GiB (13%) 
Title : 3/2+1 
Language : English 

Text  
ID : 3 
Format : PGS 
Codec ID : S_HDMV/PGS 
Codec ID/Info : The same subtitle format used on BDs/HD-DVDs 
Language : English ,Spanish ,Chinese ,Korean ,French ,Spanish



Menu & 27 Chapters



See the full size 1920x816 PNG files at the link below
 
http://s1015.photobucket.com/albums/af279/tequila-bob/Mr%20and%20Mrs%20Smith%202005/

